<svg width="262" height="262" viewBox="0 0 262 262" fill="none" xmlns="http://www.w3.org/2000/svg">
<circle cx="130.91" cy="130.91" r="130.91" fill="white"/>
<rect x="151.41" y="110.409" width="36.9689" height="36.9689" fill="black"/>
<path d="M114.441 161.228C114.452 166.846 111.075 171.915 105.887 174.07C100.7 176.224 94.7249 175.039 90.7529 171.067C86.7809 167.095 85.5954 161.12 87.7499 155.932C89.9044 150.745 94.974 147.368 100.591 147.378H114.441V110.409H100.591C80.0214 110.399 61.4717 122.783 53.5951 141.785C45.7185 160.787 50.067 182.663 64.612 197.208C79.157 211.753 101.033 216.101 120.035 208.224C139.037 200.348 151.421 181.798 151.41 161.228V147.378H114.441V161.228Z" fill="black"/>
<path d="M165.26 91.9246H206.837V54.9819H165.26C137.205 55.0108 114.47 77.7463 114.441 105.801V110.409H151.41V105.801C151.424 98.1534 157.612 91.9534 165.26 91.9246Z" fill="black"/>
<path d="M114.441 147.378H151.41V110.409H114.441V147.378Z" fill="white"/>
</svg>